<?xml version="1.0" encoding="iso-8859-1"?>
<!-- Generator: Adobe Illustrator 18.0.0, SVG Export Plug-In . SVG Version: 6.00 Build 0)  -->
<!DOCTYPE svg PUBLIC "-//W3C//DTD SVG 1.1//EN" "http://www.w3.org/Graphics/SVG/1.1/DTD/svg11.dtd">
<svg class="svgColor" version="1.1" id="Capa_1" xmlns="http://www.w3.org/2000/svg" xmlns:xlink="http://www.w3.org/1999/xlink" x="0px" y="0px"
	 viewBox="0 0 459.12 459.12" xml:space="preserve">
<g>
	<path d="M116.933,88.288c-5.523,0-10,4.477-10,10s4.477,10,10,10c8.829,0,17.129,3.438,23.372,9.682
		c1.953,1.953,4.512,2.929,7.071,2.929s5.119-0.976,7.071-2.929c3.905-3.905,3.905-10.237,0-14.143
		C144.427,93.806,131.104,88.288,116.933,88.288z"/>
	<path d="M85.836,98.345c-2.266,1.645-4.425,3.489-6.418,5.483c-3.904,3.906-3.904,10.237,0.002,14.142
		c1.953,1.952,4.511,2.928,7.07,2.928c2.56,0,5.12-0.977,7.072-2.93c1.251-1.251,2.604-2.408,4.022-3.437
		c4.47-3.244,5.463-9.497,2.219-13.967C96.559,96.094,90.306,95.102,85.836,98.345z"/>
	<path d="M257.76,103.827c-7.001-7.003-15.752-11.89-25.305-14.132c-5.375-1.262-10.759,2.073-12.021,7.45
		c-1.262,5.377,2.073,10.759,7.45,12.021c5.926,1.391,11.366,4.435,15.733,8.803c12.888,12.888,12.889,33.857,0.001,46.744
		l-8.893,8.893c-3.905,3.905-3.905,10.237,0,14.143c1.953,1.953,4.512,2.929,7.071,2.929s5.119-0.976,7.071-2.929l8.893-8.893
		C278.446,158.169,278.446,124.512,257.76,103.827z"/>
	<path d="M199.934,92.305c-6.434,2.665-12.222,6.542-17.203,11.522c-3.905,3.905-3.905,10.237,0,14.143
		c1.953,1.953,4.512,2.929,7.071,2.929s5.119-0.976,7.071-2.929c3.114-3.114,6.718-5.532,10.714-7.187
		c5.103-2.113,7.525-7.963,5.412-13.065C210.886,92.615,205.038,90.189,199.934,92.305z"/>
	<path d="M398.111,27.129C380.617,9.635,357.359,0,332.62,0c-21.531,0-41.949,7.305-58.423,20.742
		c-36.336-29.576-90.063-27.447-123.908,6.388c-9.149,9.149-16.269,20.115-20.907,32.097c-4.086-0.611-8.241-0.939-12.448-0.939
		c-22.185,0-43.041,8.639-58.727,24.326C42.519,98.3,33.88,119.156,33.88,141.341s8.639,43.041,24.326,58.727l58.421,58.421
		c10.175,10.174,22.619,16.716,35.716,19.665l-17.035,29.506c-1.787,3.094-1.787,6.906,0,10c1.786,3.094,5.087,5,8.66,5h14.622
		v126.46c0,5.523,4.477,10,10,10s10-4.477,10-10V322.66h14.623c3.573,0,6.874-1.906,8.66-5c1.787-3.094,1.787-6.906,0-10
		l-17.035-29.506c13.097-2.948,25.542-9.49,35.717-19.665l18.343-18.343c6.031,2.885,12.392,5.015,18.941,6.346l-20.141,34.885
		c-1.787,3.094-1.787,6.906,0,10c1.786,3.094,5.087,5,8.66,5h17.847V449.12c0,5.523,4.477,10,10,10s10-4.477,10-10V296.377h17.847
		c3.573,0,6.874-1.906,8.66-5c1.787-3.094,1.787-6.906,0-10l-20.133-34.872c15.609-3.153,29.954-10.803,41.465-22.314l66.067-66.077
		c17.496-17.485,27.131-40.744,27.131-65.493C425.24,67.881,415.605,44.623,398.111,27.129z M161.288,302.66l7.302-12.647
		l7.302,12.647H161.288z M206.411,244.347c-20.855,20.854-54.789,20.854-75.643,0l-58.421-58.421
		c-11.909-11.909-18.468-27.743-18.468-44.585s6.559-32.676,18.468-44.585c11.909-11.909,27.743-18.468,44.585-18.468
		s32.676,6.559,44.585,18.468c1.875,1.875,4.419,2.929,7.071,2.929s5.196-1.054,7.071-2.929
		c11.909-11.91,27.743-18.468,44.585-18.468c16.842,0,32.676,6.559,44.586,18.468c11.909,11.909,18.468,27.743,18.468,44.585
		s-6.559,32.676-18.468,44.585L206.411,244.347z M263.677,276.377l10.526-18.232l10.526,18.232H263.677z M383.968,143.97
		l-66.069,66.079c-11.666,11.667-27.185,18.091-43.699,18.091c-6.845,0-13.594-1.133-19.987-3.312l24.76-24.76
		c15.687-15.687,24.326-36.543,24.326-58.728S294.66,98.3,278.974,82.613c-30.12-30.119-77.805-32.226-110.379-6.317
		c-6.079-4.848-12.75-8.76-19.825-11.695c3.635-8.676,8.954-16.623,15.66-23.329c28.319-28.311,74.39-28.311,102.699-0.001
		c3.904,3.905,10.234,3.906,14.14,0.002C294.995,27.555,313.232,20,332.62,20c19.396,0,37.632,7.554,51.349,21.271
		c13.717,13.716,21.271,31.952,21.271,51.349C405.24,112.025,397.686,130.26,383.968,143.97z"/>
	<path d="M306.569,35.649c-6.769,3.1-12.902,7.372-18.231,12.698c-3.906,3.904-3.908,10.236-0.003,14.142
		c1.953,1.954,4.513,2.931,7.073,2.931c2.558,0,5.117-0.976,7.069-2.927c3.642-3.64,7.821-6.553,12.421-8.66
		c5.021-2.299,7.228-8.234,4.928-13.256C317.526,35.556,311.59,33.348,306.569,35.649z"/>
	<path d="M376.898,48.342c-10.229-10.229-23.197-16.447-37.501-17.981c-5.492-0.595-10.42,3.385-11.009,8.876
		c-0.589,5.491,3.385,10.42,8.876,11.009c9.713,1.042,18.528,5.273,25.492,12.238c8.05,8.05,12.484,18.752,12.484,30.135
		c0,11.388-4.434,22.09-12.487,30.138l-24.436,24.44c-3.905,3.905-3.904,10.237,0.001,14.142c1.953,1.952,4.511,2.928,7.07,2.928
		s5.119-0.977,7.072-2.93l24.433-24.437c11.831-11.823,18.346-27.549,18.346-44.282C395.24,75.895,388.726,60.17,376.898,48.342z"/>
</g>
<g>
</g>
<g>
</g>
<g>
</g>
<g>
</g>
<g>
</g>
<g>
</g>
<g>
</g>
<g>
</g>
<g>
</g>
<g>
</g>
<g>
</g>
<g>
</g>
<g>
</g>
<g>
</g>
<g>
</g>
</svg>
